# xmcd
#
# Track frame offsets:
#	151
#	14769
#	32125
#	56046
#	73063
#	93888
#
# Disc length: 1473 seconds
#
# Revision: 1
# Processed by: cddbd v1.5.2PL0 Copyright (c) Steve Scherf et al.
# Submitted via: audiograbber 1.83.01
#
DISCID=4f05bf06
DTITLE=The Jayco Brothers - Asbestos Fibro
DYEAR=2005
DGENRE=Country Rock
TTITLE0=Asbestos Fibro
TTITLE1=Even The Sweet Things Die
TTITLE2=Up To 10
TTITLE3=Jump That Flight
TTITLE4=Any Other Type
TTITLE5=(Untitled)
EXTD=
EXTT0=
EXTT1=
EXTT2=
EXTT3=
EXTT4=
EXTT5=
PLAYORDER=
